<svg version="1.2" xmlns="http://www.w3.org/2000/svg" viewBox="0 0 395 366" width="395" height="366">
	<title>birb1Asset_2-svg</title>
	<style>
		.s0 { fill: #fdfbfc } 
	</style>
	<g id="Layer_2">
		<g id="Layer_1-2">
			<path id="Layer" class="s0" d="m76.5 327.4c-2-3.9 22.1-15.6 49-41.4q7.8-7.5 15.3-15.3 7.4-7.9 14.5-16.1 7.1-8.2 13.7-16.7 6.7-8.5 13-17.3c4.2-5.9 10.9 8.2 17.3-5.5 10.4-22.3 4.3-45.8 4.3-45.8-11.3-40.8-57.5-61.8-77.6-70.9-8.9-4.1-31.5-16.3-38.1-22.6-7.8-7.5-14.8-15.7-11.4-18.8 26 9.1 47.7 17.2 63.9 23.4 21 8 28.1 11.1 36.3 17 19.7 14.3 29.6 33.6 34.7 46.8 10.8-28 34.7-45 58.6-44.6q2.9 0.1 5.7 0.5 2.9 0.5 5.7 1.3 2.7 0.8 5.4 2 2.6 1.2 5.1 2.7 1.5 0.9 3 2 1.4 1 2.8 2.2 1.4 1.2 2.6 2.4 1.3 1.3 2.4 2.7c2.8 3.1 13 10.1 50.6 24.2-27.9 4.6-65.7 15.7-85.8 46.8-13.5 21.1-5.9 31-19.7 54.4-16.6 28-45.3 40.6-102 64.8-4.5 1.9-66.1 28.1-69.3 21.8z"/>
			<path id="Layer" class="s0" d="m49 100.2q1.4 4.4 3 8.7 1.6 4.2 3.5 8.4 1.9 4.2 4 8.3 2.1 4 4.5 7.9c19.9 32.9 48 50.1 69.9 63.2q5.1 3.1 10.4 6 5.3 2.9 10.8 5.5 5.4 2.6 10.9 5.1 5.6 2.4 11.2 4.5 1.2-3 2.1-6.1 0.9-3.2 1.4-6.4 0.5-3.2 0.7-6.5 0.1-3.2-0.1-6.5c-1.3-19.3-12.6-32.3-16.3-36.4-16-17.8-32.2-16.2-67.9-30.7q-6.3-2.6-12.4-5.4-6.2-2.9-12.2-6-6-3.2-11.9-6.6-5.9-3.4-11.6-7z"/>
		</g>
	</g>
</svg>